<svg width="245" height="55" viewBox="0 0 245 55" fill="none" xmlns="http://www.w3.org/2000/svg">
<path d="M203.887 18.251L204.327 18.0301C204.488 17.9498 204.688 17.8996 204.898 17.8996H212.537L213.358 14.6968H206.059C205.899 14.6968 205.749 14.6667 205.609 14.6165C205.048 14.4056 204.568 13.9337 204.938 13.2711C204.968 13.1807 204.988 13.1004 205.008 13.0301H199.692C199.542 13.9237 199.282 14.3655 198.771 14.5763C198.531 14.6767 198.25 14.7169 197.98 14.6867H190.111L189.24 17.8896H196.879C197.129 17.8896 197.369 17.9598 197.55 18.0803L197.87 18.3012C198.08 18.4518 198.17 18.6526 198.12 18.8534L197.6 20.8313C197.56 20.9719 197.45 21.1024 197.279 21.2028L196.829 21.4538C196.659 21.5542 196.448 21.6044 196.228 21.6044H188.239L187.368 24.8072H201.234C201.484 24.8072 201.724 24.8775 201.905 24.998L202.225 25.2189C202.435 25.3594 202.525 25.5703 202.475 25.7711L202.145 27.0161C202.105 27.1767 201.975 27.3173 201.784 27.4076L201.344 27.6285C201.184 27.7088 200.984 27.759 200.783 27.759H185.696L184.755 31.2128H199.542C199.842 31.2128 200.123 31.3132 200.303 31.4739L200.613 31.765C200.763 31.9056 200.823 32.0763 200.783 32.247L199.442 37.3574C199.352 37.6887 199.021 38.2711 197.72 38.492C197.64 38.502 197.57 38.512 197.49 38.512H195.227C195.177 38.512 195.117 38.512 195.067 38.512C194.686 38.4719 194.366 38.3213 194.166 38.1104C193.805 37.7088 193.986 37.1968 194.206 36.765C194.366 36.504 194.436 36.3333 194.476 36.2128C194.396 36.2128 194.316 36.2329 194.236 36.2329C193.535 36.2028 192.033 36.263 191.873 34.5462C191.843 34.2148 191.813 34.004 191.773 33.8634H184.324L184.304 33.9438C184.415 34.255 184.705 35.0381 184.715 35.0783C185.165 37.0462 185.916 38.0602 187.248 38.7128C188.189 39.1646 189.35 39.3152 190.852 39.1446C191.883 39.0542 192.614 39.2048 193.044 39.5863C193.705 40.1887 193.175 41.012 192.944 41.3434C192.904 41.4438 192.874 41.5241 192.844 41.5944C193.976 41.5944 201.024 41.5944 201.024 41.5944C201.024 41.5944 201.154 41.5241 201.224 41.504C203.677 40.9819 204.367 40.1084 204.678 39.0843L206.51 31.9458C206.53 31.8654 206.58 31.7851 206.64 31.7148C207.121 31.2028 207.901 31.002 208.722 31.1626C208.652 31.1526 208.582 31.1426 208.512 31.1426C208.873 31.1526 209.794 31.253 209.974 31.253L210.855 27.7891C209.724 27.8293 208.352 27.6586 207.992 27.2871C207.811 27.1064 207.771 26.8855 207.871 26.6646L208.182 25.4498C208.212 25.3293 208.292 25.2189 208.412 25.1285C209.093 24.6265 209.724 24.6265 210.114 24.7068C210.404 24.7068 211.275 24.8173 211.436 24.8173L212.246 21.6245H204.257C203.977 21.6245 203.707 21.5442 203.536 21.3936L203.226 21.1426C203.056 21.002 202.976 20.8112 203.026 20.6305L203.546 18.6526C203.587 18.492 203.717 18.3514 203.907 18.261L203.887 18.251Z" fill="white"/>
<path d="M185.195 19.7771L185.976 16.7149C184.825 16.7751 184.114 16.7149 183.754 16.3233C183.584 16.1325 183.554 15.9116 183.644 15.7008L184.334 13.01H178.828L178.057 15.9618C178.017 16.1124 177.897 16.253 177.717 16.3534L177.296 16.5743C177.146 16.6546 176.956 16.6948 176.766 16.6948H175.524C175.264 16.6948 175.014 16.6145 174.844 16.4639C174.673 16.3233 174.603 16.1325 174.653 15.9518L174.784 15.4398C174.804 15.3494 174.874 15.2691 174.944 15.1888L175.214 14.3353H172.401C172.391 14.4056 172.371 14.4859 172.371 14.5964C172.371 14.6365 172.371 14.6667 172.351 14.7068C171.089 18.7229 170.288 20.0783 169.558 20.5L169.608 23.4819H169.948C171.28 23.241 172.231 22.5582 172.851 21.3735C172.961 20.6104 173.182 20.1687 173.612 19.9277C173.873 19.7871 174.203 19.7269 174.523 19.7671C174.473 19.7671 174.423 19.7671 174.373 19.7671H175.625C175.885 19.7671 176.135 19.8474 176.305 19.998L176.596 20.249C176.756 20.3896 176.826 20.5803 176.786 20.761L175.735 24.7671C175.715 24.8373 175.675 24.9177 175.625 24.9779C171.049 30.2992 168.687 30.992 167.525 31.4739L166.684 35.51C166.884 35.51 167.035 35.51 167.015 35.51L168.987 35.4197C170.008 35.1687 170.739 34.8574 171.159 34.5161C171.42 34.3052 172.201 34.2349 172.561 34.3654C172.921 34.4859 173.122 34.7671 173.042 35.0482L171.33 41.5944H176.966L180.5 27.8795C180.51 27.8193 180.54 27.7691 180.58 27.7189C180.75 27.4679 181.311 26.8855 182.693 27.0964C182.653 27.0964 182.602 27.0964 182.562 27.0863C182.893 27.0964 183.123 27.0964 183.283 27.0863L184.064 24.0241C182.973 24.0743 182.252 24.0141 181.882 23.6225C181.701 23.4317 181.671 23.2008 181.762 22.9799L182.392 20.5301C182.412 20.4699 182.432 20.4096 182.472 20.3594C182.653 20.1185 183.203 19.5663 184.575 19.7771C184.535 19.7771 184.485 19.7771 184.445 19.7671C184.785 19.7771 185.015 19.7771 185.185 19.7671L185.195 19.7771Z" fill="white"/>
<path d="M131.234 35.0381C131.264 34.9377 131.324 34.8373 131.404 34.757L135.919 30.6104L138.762 20.249C138.802 20.1084 138.902 19.9779 139.063 19.8775L139.153 19.8173C139.373 19.5863 139.753 19.4357 140.174 19.3353L140.995 16.3133C140.474 16.1024 140.244 15.8012 140.144 15.5602C140.104 15.4598 140.094 15.3494 140.124 15.249L140.735 13.0402H135.669L134.988 15.51C134.948 15.6506 134.848 15.7811 134.688 15.8715L134.157 16.2028C133.997 16.3032 133.797 16.3534 133.586 16.3534H132.615C132.345 16.3534 132.095 16.263 131.924 16.1024L131.574 15.7711C131.414 15.6205 131.354 15.4297 131.404 15.239L132.005 13.0904H126.939L126.258 15.5C126.218 15.6506 126.098 15.7912 125.918 15.8916L125.437 16.1526C125.287 16.2329 125.097 16.2831 124.906 16.2831C124.656 16.2831 124.486 16.2831 124.366 16.3032L123.505 19.3253C124.136 19.4659 124.816 19.747 124.856 20.3394C124.856 20.3896 124.856 20.4498 124.836 20.5L121.943 30.741L121.993 31.0221L124.556 35.008C124.636 35.1385 124.666 35.2791 124.626 35.4197L124.576 35.6205C124.546 35.7309 124.486 35.8313 124.376 35.9116C121.222 38.5924 120.041 38.9237 119.23 38.8735C118.96 38.8534 118.729 38.7831 118.519 38.6727C118.379 38.6727 118.269 38.6626 118.189 38.6626L117.348 41.6044H122.424C123.835 41.1727 124.997 40.51 125.878 39.6365C126.048 39.4658 126.308 39.3755 126.588 39.3755H126.769C127.099 39.3755 127.399 39.5161 127.549 39.7269C128.31 40.8012 129.121 41.4337 129.982 41.6144H134.758L135.569 38.6626C133.566 38.5422 132.976 38.3514 132.665 38.0502C132.565 37.9498 132.505 37.8494 132.475 37.7389L131.214 35.6908C131.134 35.5703 131.114 35.4297 131.154 35.2891L131.224 35.0281L131.234 35.0381ZM130.983 29.9076C130.983 29.9076 130.953 29.998 130.923 30.0482C130.633 30.51 130.212 30.8815 129.662 31.1426C129.522 31.2128 129.352 31.243 129.181 31.243H128.821C128.601 31.243 128.4 31.1827 128.23 31.0823C127.77 30.7811 127.489 30.3494 127.389 29.7972C127.379 29.7269 127.389 29.6566 127.399 29.5863L130.002 20.259C130.042 20.1185 130.152 19.9879 130.303 19.8875L130.833 19.5562C130.993 19.4558 131.194 19.4056 131.394 19.4056H132.365C132.635 19.4056 132.896 19.496 133.056 19.6566L133.406 19.9879C133.566 20.1386 133.626 20.3293 133.576 20.5201L130.963 29.9177L130.983 29.9076Z" fill="white"/>
<path d="M165.213 23.1406C165.203 23.0703 165.213 22.99 165.213 22.9197L167.796 13H145.14L142.366 23.1807C142.336 23.2912 142.266 23.4016 142.156 23.492C141.826 23.7731 141.395 23.9839 140.885 24.1245L139.984 27.4277C140.454 27.6385 140.705 27.9197 140.845 28.1606C140.915 28.2811 140.935 28.4217 140.905 28.5522L138.162 38.6024H153.82C154.1 38.6024 154.43 38.5321 154.811 38.9237C155.041 39.1546 154.951 39.3554 154.931 39.4357C154.901 39.5562 154.831 39.9277 154.31 39.9578C154.18 39.9679 153.94 39.9578 153.81 39.9578H151.887L151.667 41.5241C159.376 41.6546 158.615 41.3936 158.985 41.2831C159.046 41.2329 159.116 41.1928 159.196 41.1626C160.477 40.6205 160.858 40.259 160.838 39.1245C160.838 39.0642 160.848 38.994 160.868 38.9337C161.108 38.2912 161.719 38.6426 162.489 38.4719L163.3 35.3594C162.79 35.2088 162.299 34.9578 162.239 34.506C162.229 34.4458 162.239 34.3755 162.239 34.3153L163.811 28.2811C163.851 28.1305 163.961 27.99 164.131 27.8896L164.522 27.6486C164.652 27.5683 164.802 27.5181 164.972 27.498C165.243 27.4679 165.423 27.4377 165.543 27.4177L166.414 24.0843C165.703 23.8936 165.293 23.5723 165.213 23.1305V23.1406ZM157.023 34.8173C156.943 35.1385 156.563 35.3594 156.122 35.3594H155.552C155.281 35.3594 154.14 35.2691 153.96 35.1084L153.88 35.0381C153.749 34.9177 153.669 34.7671 153.669 34.6064C153.669 34.6064 153.689 30.6305 153.689 30.6004C153.709 30.2992 153.709 30.0883 153.709 29.9377H149.785L149.595 34.9076C149.585 35.2791 149.174 35.5602 148.674 35.5602H145.53C145.25 35.5602 144.989 35.4699 144.819 35.3092L144.589 35.1084C144.419 34.9578 144.349 34.747 144.399 34.5562L145.981 28.3112C146.021 28.1606 146.121 28.0301 146.271 27.9297L146.842 27.5482C147.012 27.4377 147.232 27.3775 147.462 27.3775H157.404C157.694 27.3775 157.974 27.4779 158.155 27.6586L158.525 28.0402C158.675 28.1908 158.735 28.3815 158.685 28.5622L157.033 34.8072L157.023 34.8173ZM160.077 23.261C160.037 23.4116 159.927 23.5522 159.766 23.6526L159.316 23.9237C159.146 24.0241 158.935 24.0843 158.725 24.0843H158.355C158.074 24.0843 156.933 23.994 156.763 23.8333L156.613 23.6928C156.483 23.5723 156.413 23.4217 156.413 23.2711L156.362 18.8835C156.362 18.8835 156.362 18.8233 156.362 18.7932C156.362 18.7731 156.362 18.753 156.372 18.7329H152.738C152.788 22.2369 152.668 23.1606 152.568 23.5422C152.488 23.8634 152.108 24.0843 151.667 24.0843H148.443C148.163 24.0843 147.903 23.994 147.733 23.8333L147.662 23.763C147.492 23.6124 147.422 23.4116 147.472 23.2108L149.054 16.9659C149.094 16.8052 149.224 16.6546 149.404 16.5542L149.955 16.243C150.115 16.1526 150.316 16.1024 150.516 16.1024H160.407C160.667 16.1024 160.908 16.1827 161.088 16.3233L161.478 16.6345C161.679 16.7952 161.759 17.006 161.709 17.2269L160.107 23.261H160.077Z" fill="white"/>
<path d="M91.1578 41.3935H109.389C111.791 40.8213 113.253 39.9076 113.844 38.6124L117.047 27.6084H95.3125L91.1477 41.3935H91.1578ZM97.7153 36.8253L99.207 31.8755C99.247 31.7349 99.3471 31.6144 99.4873 31.514L99.9578 31.2028C100.128 31.0923 100.348 31.0321 100.579 31.0321H109.499C109.799 31.0321 110.089 31.1425 110.26 31.3333L110.54 31.6446C110.68 31.7952 110.73 31.9859 110.68 32.1666L109.218 37.0462C109.188 37.1466 109.128 37.247 109.038 37.3273C108.798 37.5482 108.518 37.7289 108.207 37.8695C108.067 37.9297 107.907 37.9598 107.737 37.9598H98.8866C98.5863 37.9598 98.2959 37.8494 98.1257 37.6586L97.8454 37.3474C97.7053 37.1968 97.6552 37.006 97.7153 36.8253Z" fill="white"/>
<path d="M119.54 19.2751C119.1 17.2871 118.799 15.5402 118.679 14.0141C118.699 13.502 118.679 13.1908 118.649 13.01H103.632C103.212 13.502 102 14.9076 102.02 14.8775C98.0757 20.008 96.3537 20.8313 94.9821 20.49C94.5617 20.3795 94.3114 20.0582 94.4015 19.7369L96.4138 13.0703H81.747L72.9269 41.5944H83.8093C85.9017 41.5944 87.9941 40.249 88.3245 39.3253L92.8797 24.2149C92.9198 24.0743 93.0299 23.9438 93.1801 23.8534L93.6106 23.5924C93.7708 23.502 93.961 23.4418 94.1712 23.4418H95.2524C95.3526 23.4418 95.4527 23.4518 95.5528 23.4819C95.8932 23.5723 96.1635 23.753 96.3036 23.9839C96.5539 24.4056 96.3537 24.8574 96.2136 25.1084C96.1735 25.1988 96.1435 25.2691 96.1134 25.3494H117.458C117.598 24.3253 117.878 23.8032 118.419 23.5622C118.679 23.4418 118.99 23.4116 119.29 23.4518C119.61 23.4618 119.831 23.4618 119.991 23.4518L120.872 20.3695C119.991 20.1084 119.66 19.6566 119.55 19.255L119.54 19.2751ZM89.7561 16.4337L82.9784 38.4719C82.9584 38.5221 82.9383 38.5723 82.8983 38.6225C82.7081 38.8936 82.3677 39.1245 81.8571 39.3253C81.727 39.3755 81.5868 39.4056 81.4466 39.4056H80.7358C80.4455 39.4056 80.1652 39.2952 80.005 39.1144L79.7347 38.8233C79.6045 38.6727 79.5545 38.492 79.6045 38.3213L86.4424 16.1526C86.4824 16.012 86.5925 15.8916 86.7427 15.7912L87.1732 15.5301C87.3334 15.4398 87.5336 15.3795 87.7338 15.3795H88.6148C88.8852 15.3795 89.1455 15.4699 89.3156 15.6305L89.586 15.8916C89.7461 16.0422 89.8062 16.243 89.7461 16.4237L89.7561 16.4337ZM113.393 21.9659C113.223 22.1064 112.983 22.1968 112.722 22.1968H103.742C103.422 22.1968 103.121 22.0663 102.971 21.8655C102.811 21.6546 102.831 21.4036 103.001 21.2028C103.001 21.2028 105.194 18.6526 105.164 18.6827C106.846 16.4237 107.236 16.1225 107.887 16.1727H111.681C112.112 16.1727 112.482 16.4036 112.552 16.7149L113.593 21.4337C113.634 21.6245 113.563 21.8153 113.393 21.9558V21.9659Z" fill="white"/>
<path d="M71.4852 38.3514H42.1516C42.0615 38.3514 42.0315 38.3715 41.8212 38.3313C41.4508 38.2912 41.2206 38.251 41.0704 38.1807C40.6499 37.9799 39.9591 37.1867 40.0793 35.8012C40.0793 35.7108 40.1493 35.1787 40.3996 34.7369C40.3996 34.7369 40.6499 34.4257 40.8702 34.3253C41.1004 34.2349 41.2206 34.1747 41.4008 34.1747H63.9866C66.6096 34.2249 65.8488 34.1646 66.069 34.1245C66.1491 34.0743 66.2492 34.0442 66.3493 34.0241C69.543 33.4518 71.3951 32.3273 72.0058 30.5904L77.2318 13.0502H40.0292C39.1482 15.7008 33.0412 35.1084 33.0412 35.0984L32 37.8393C32.3804 40.2791 33.772 41.4739 36.335 41.5843H67.6308C67.6308 41.5843 69.0124 41.6948 70.2538 40.7409C71.3551 39.8875 71.4852 38.3414 71.4852 38.3414V38.3514ZM57.0887 29.4659L60.9932 17.5382C61.0333 17.4076 61.1334 17.2871 61.2735 17.2068L61.8041 16.8855C61.9443 16.7952 62.1345 16.755 62.3147 16.755H67.811C68.0713 16.755 68.3116 16.8454 68.4618 16.996L68.7921 17.3173C68.9423 17.4578 68.9924 17.6486 68.9323 17.8193L65.4483 28.5723C65.2381 29.2349 64.5873 30.0984 62.6751 30.4799C62.6051 30.49 63.3759 30.5 63.3059 30.5H58.21C57.9798 30.5 57.7595 30.4297 57.6093 30.2992L57.2689 30.0181C57.0887 29.8675 57.0187 29.6667 57.0787 29.4759L57.0887 29.4659ZM42.1516 29.4659L46.1562 17.5382C46.1963 17.4076 46.2964 17.2972 46.4365 17.2068L46.9772 16.8855C47.1273 16.8052 47.2975 16.755 47.4877 16.755H52.6537C52.9039 16.755 53.1442 16.8454 53.2944 16.9859L53.6248 17.3072C53.7749 17.4478 53.825 17.6386 53.7649 17.8193L49.8104 29.747C49.7603 29.8875 49.6502 30.0181 49.49 30.0984L48.9594 30.3795C48.8193 30.4498 48.6591 30.49 48.4889 30.49H43.2729C43.0427 30.49 42.8324 30.4197 42.6722 30.2891L42.3218 30.008C42.1416 29.8574 42.0615 29.6466 42.1316 29.4558L42.1516 29.4659Z" fill="white"/>
</svg>
