<svg width="40" height="40" viewBox="0 0 40 40" fill="none" xmlns="http://www.w3.org/2000/svg">
<path d="M31.007 17.5321L30.8665 19.054C30.6417 19.1386 30.37 19.862 30.37 19.862L28.0469 22.7461C28.8525 22.887 29.4145 22.6428 29.4145 22.6428C28.9743 21.8348 30.0328 21.2806 30.0328 21.2806L31.1663 21.2148C32.5808 20.5947 33.1803 19.2889 33.1803 19.2889C33.4614 18.2931 33.2459 17.6543 33.2178 17.5603L31.0164 17.5321H31.007Z" fill="white"/>
<path d="M39.7096 15.6626L38.7916 14.911L36.918 15.1365C36.74 15.3526 36.103 15.6626 36.103 15.6626C35.822 15.8599 35.7564 15.4183 35.7564 15.4183L35.3724 15.0895L35.1101 16.6678L36.4684 16.6302L36.9274 15.9726L37.5457 15.6438C37.63 15.6062 37.8642 15.4277 37.9672 15.4559H38.7916L38.8478 16.1323L39.185 15.7659L39.1101 15.7096C39.4098 15.8317 39.4098 16.4987 39.4098 16.4987L39.719 15.672L39.7096 15.6626Z" fill="white"/>
<path d="M34.3794 14.9016L33.4426 14.3662C33.4426 14.3662 32.6838 13.5676 32.7307 12.9194L35.1663 7.52694L35.2506 7.47997H35.3724L35.5878 7.63028C35.6909 7.79939 35.8782 8.08122 36.0094 8.19396C36.0843 8.43821 36.1874 8.73884 36.3279 8.93612C36.3279 8.93612 36.1218 8.15638 36.2529 7.71484C35.7939 7.47997 35.5129 6.60628 35.5129 6.60628L35.1288 6.76599C34.9789 6.76599 34.8009 6.7378 34.6979 6.71902C34.4262 6.58749 34.1639 6.46536 34.0234 6.409C32.9087 5.83593 29.6019 4.28583 25.3864 3.54367C20.1593 2.623 7.0726 2.49148 3.98127 2.96121C0.880567 3.43093 2.13584 3.35578 2.13584 3.35578C2.13584 3.35578 13.808 4.73677 19.363 8.78581L31.5316 16.0948L34.3888 14.9016H34.3794Z" fill="white"/>
<path d="M40 11.8015C40 11.8015 39.8314 11.0499 39.5691 11.1532C39.4192 11.219 38.9227 11.0217 38.5293 10.8432L38.0047 10.5896L36.3091 10.6178C36.1405 10.599 35.2131 10.6178 34.5948 10.8338C34.5948 10.8338 35.6066 10.7305 36.7775 11.0875C36.8337 11.1157 36.8806 11.1251 36.918 11.1345C36.5714 11.2566 34.5012 11.6512 34.2108 11.6605C33.7705 11.6699 35.6159 11.8203 36.6089 11.7545L35.9532 12.3839C35.8876 12.4497 34.829 12.9194 34.6511 13.0603C34.3981 13.1637 35.3349 12.9946 35.3349 12.9946C35.1382 13.0979 34.5199 13.3422 34.2951 13.3704C34.2951 13.3704 34.4918 13.6146 34.7541 13.671C34.3794 13.7743 33.7892 13.9058 33.6206 13.8777C33.6206 13.8777 33.9204 13.9528 34.1265 14.0562C33.5082 14.1407 33.0211 14.3004 33.0211 14.3004L33.5738 14.6104L32.9461 14.8829C31.7471 14.1783 31.7845 13.2576 31.7845 13.2576L33.6956 8.25973C33.7611 8.23155 33.8361 8.21276 33.911 8.19397L34.1639 8.37247C34.192 8.43823 34.2389 8.50399 34.3138 8.59793C34.445 9.37768 35.1944 10.0823 34.9883 9.78164C34.8759 9.61254 34.7635 9.21797 34.6885 8.88916L34.5855 8.12821L33.7143 7.16997L33.0679 7.41422C33.0679 7.41422 25.0585 5.34743 24.103 5.36622C22.5948 4.90589 2.55738 6.96329 2.55738 6.96329L0 7.59272C0.983606 7.4612 2.21077 7.40483 3.56909 7.38604C4.36534 7.43301 5.34895 7.50817 6.41686 7.6209L9.66745 8.16579C22.6042 10.4299 14.6136 15.8787 14.6136 15.8787L14.0141 16.386C18.3607 13.7743 21.6581 13.7837 21.6581 13.7837C25.0773 13.981 22.6979 18.5467 22.6979 18.5467C25.4052 15.8035 28.2061 15.4278 29.7611 15.4747C30.1452 15.5311 30.5293 15.625 30.8384 15.7941C30.7447 15.8975 30.2201 16.4705 30.1265 16.5645L27.7283 17.0812C27.541 17.2597 29.3115 17.0812 29.1148 17.2315C28.8712 17.4288 29.2178 17.3254 28.9649 17.4946C28.7494 17.6449 27.0351 17.7576 26.8103 17.8891C26.5948 18.0112 28.0375 18.1052 27.822 18.2085C27.5972 18.3213 27.6628 18.3025 27.6815 18.3025C27.6628 18.3025 27.6253 18.3213 27.5129 18.3588C27.2881 18.434 24.8993 18.4622 24.6745 18.5279C24.4778 18.5843 25.8454 18.9695 25.6581 19.0165C23.466 19.5332 23.26 20.2284 20.1405 19.2701C19.897 19.2607 18.6136 18.1428 18.3981 18.124C18.192 18.1146 19.0539 19.195 18.8759 19.1856C18.7166 19.1762 16.7213 18.2179 16.5995 18.2085C16.0937 18.1616 17.6487 19.054 17.6487 19.054C17.3115 18.9789 17.1335 18.8755 16.8056 18.8286C16.5621 18.791 14.6979 18.1146 14.4637 18.0864C14.3513 18.077 15.541 18.7816 15.4379 18.7722C14.9696 18.7346 14.6885 18.6971 14.2763 18.7064C14.0047 18.7064 12.1593 18.2273 11.9157 18.2461C11.6721 18.2649 13.0304 18.7816 12.815 18.8098C11.7002 18.9413 11.0164 19.1574 11.0164 19.1574C9.52693 19.7023 10.6885 19.4956 10.6885 19.4956C15.6721 18.6313 17.4052 19.8714 19.719 20.5947C24.8993 22.2012 30.1358 18.9789 30.1358 18.9789L29.7986 19.6459C29.8923 20.3129 29.1522 20.9611 29.1522 20.9611L28.7026 21.0081L28.3747 20.7544L27.9625 21.1584L27.8407 21.8724C27.8126 21.9757 27.719 22.3515 27.6347 22.7085C26.9415 22.9997 26.2763 23.3943 25.6674 23.9016C22.4543 26.5978 22.0422 31.3797 24.7307 34.5926C27.4192 37.8055 32.2061 38.2189 35.4098 35.532C35.4473 35.5039 35.4754 35.4663 35.5129 35.4381C32.8525 37.0915 29.2272 36.4997 27.0539 33.9068C24.6838 31.079 24.9368 26.9548 27.6253 24.7002C30.3138 22.4455 34.4075 22.9058 36.7775 25.7335C37.0867 26.1093 37.3583 26.5039 37.5738 26.9173C37.2834 26.1845 36.8712 25.4799 36.3372 24.8411C34.3419 22.4643 31.2037 21.6187 28.4122 22.4361C28.6089 22.0039 28.9649 21.6281 28.9649 21.6281C29.3208 21.6375 29.1335 21.5248 29.7424 21.2805C29.8829 21.0645 30.829 20.9236 30.829 20.9236C31.5316 20.7732 32.1592 20.2471 32.5714 19.5144C32.9649 18.8286 32.8244 18.1616 32.8244 18.1616L34.8665 16.696C35.541 16.649 35.6066 16.6209 35.6066 16.6209L36.1311 16.7148L38.3138 15.9257L38.2108 16.6209L38.7541 16.2169C38.8009 16.2733 38.9321 16.4048 38.8384 16.7336C38.7916 16.8933 39.2318 16.433 39.2318 16.433L39.5972 15.982L38.4824 15.2211L36.6932 15.6626C36.5714 15.5781 36.1499 16.0572 36.5902 15.5875C36.7869 15.3808 37.1429 14.4977 37.1429 14.4977L37.2084 13.4173L37.7892 12.6564L38.0984 12.5342C38.2201 12.6 38.3981 12.6188 38.5667 12.6188C38.6698 12.647 38.8384 12.7033 38.9227 12.7879L39.0632 12.8537L39.4848 12.5248C39.4848 12.5248 39.3817 12.5342 39.2225 12.5248H39.2412C39.2412 12.5248 39.2225 12.5248 39.2131 12.5248C39.1663 12.5248 39.1194 12.5248 39.0632 12.5155V12.4497L38.9415 12.4873C38.7073 12.3464 38.4356 11.98 38.4356 11.98L38.7916 11.5948H39.2787C39.2787 11.5948 39.4567 11.5948 39.4754 11.6136L39.644 11.8297L39.6909 11.6887C39.9438 11.7357 39.9157 11.9424 39.9157 11.9424L40 11.8109V11.8015ZM38.3888 11.2848L37.911 11.3693L37.4333 10.9654L38.4543 11.1908L38.3981 11.2848H38.3888Z" fill="white"/>
</svg>
