<svg width="24" height="24" viewBox="0 0 24 24" fill="none" xmlns="http://www.w3.org/2000/svg">
<path d="M19.5333 4.46667C17.5333 2.46667 14.8667 1.33333 12 1.33333C9.13334 1.33333 6.46668 2.46667 4.46668 4.46667C2.46668 6.46667 1.33334 9.13333 1.33334 12C1.33334 14.8667 2.46668 17.5333 4.46668 19.5333C6.46668 21.5333 9.13334 22.6667 12 22.6667C14.8667 22.6667 17.5333 21.5333 19.5333 19.5333C21.5333 17.5333 22.6667 14.8667 22.6667 12C22.6667 9.13333 21.5333 6.46667 19.5333 4.46667ZM16.2 8.46667C16.6667 8.46667 17.0667 8.86667 17.0667 9.33333C17.0667 9.8 16.6667 10.2 16.2 10.2C15.7333 10.2 15.3333 9.8 15.3333 9.33333C15.3333 8.86667 15.7333 8.46667 16.2 8.46667ZM7.80001 8.46667C8.26668 8.46667 8.66668 8.86667 8.66668 9.33333C8.66668 9.8 8.26668 10.2 7.80001 10.2C7.33334 10.2 6.86668 9.8 6.86668 9.33333C6.86668 8.86667 7.33334 8.46667 7.80001 8.46667ZM18.5333 13.3333C17.2667 15.8 14.8 17.3333 12 17.3333C9.26668 17.3333 6.73334 15.8 5.46668 13.3333C5.40001 13.0667 5.46668 12.8 5.66668 12.7333C5.80001 12.6667 5.86668 12.6 6.00001 12.6667C6.06668 12.7333 6.20001 12.8 6.13334 12.9333C7.33334 15.1333 9.46668 16.5333 11.9333 16.5333C14.4 16.5333 16.6 15.1333 17.7333 12.9333C17.8 12.8667 17.8667 12.8 18 12.7333C18.1333 12.6667 18.2 12.6667 18.3333 12.7333C18.5333 12.8 18.6667 13.0667 18.5333 13.3333Z" fill="#11AAC1"/>
</svg>
