<svg width="24" height="24" viewBox="0 0 24 24" fill="none" xmlns="http://www.w3.org/2000/svg">
<path d="M7.8 10.2C8.26667 10.2 8.66667 9.8 8.66667 9.33333C8.66667 8.86667 8.26667 8.46667 7.8 8.46667C7.33334 8.46667 6.86667 8.86667 6.86667 9.33333C6.86667 9.8 7.33334 10.2 7.8 10.2Z" fill="#8C8C8C"/>
<path d="M16.2 10.2C16.6787 10.2 17.0667 9.81198 17.0667 9.33333C17.0667 8.85469 16.6787 8.46667 16.2 8.46667C15.7214 8.46667 15.3333 8.85469 15.3333 9.33333C15.3333 9.81198 15.7214 10.2 16.2 10.2Z" fill="#8C8C8C"/>
<path d="M18.3333 12.7333C18.2 12.6667 18.1333 12.6667 18 12.7333C17.8667 12.8 17.8 12.8667 17.7333 12.9333C16.6 15.1333 14.4 16.5333 11.9333 16.5333C9.46668 16.5333 7.33335 15.1333 6.13335 12.9333C6.20001 12.8 6.06668 12.7333 6.00001 12.6667C5.86668 12.6 5.80001 12.6667 5.66668 12.7333C5.46668 12.8 5.40001 13.0667 5.46668 13.3333C6.73335 15.8 9.26668 17.3333 12 17.3333C14.8 17.3333 17.2667 15.8 18.5333 13.3333C18.6667 13.0667 18.5333 12.8 18.3333 12.7333Z" fill="#8C8C8C"/>
<path d="M19.5333 4.46667C17.5333 2.46667 14.8667 1.33333 12 1.33333C9.13334 1.33333 6.46668 2.46667 4.46668 4.46667C2.46668 6.46667 1.33334 9.13333 1.33334 12C1.33334 14.8667 2.46668 17.5333 4.46668 19.5333C6.46668 21.5333 9.13334 22.6667 12 22.6667C14.8667 22.6667 17.5333 21.5333 19.5333 19.5333C21.5333 17.5333 22.6667 14.8667 22.6667 12C22.6667 9.13333 21.5333 6.46667 19.5333 4.46667ZM12 21.8667C9.33334 21.8667 6.86668 20.8667 5.06668 19C3.20001 17.1333 2.13334 14.6667 2.13334 12C2.13334 9.33333 3.13334 6.86667 5.00001 5.06667C6.86668 3.2 9.33334 2.13333 12 2.13333C14.6667 2.13333 17.1333 3.13333 18.9333 5C20.8 6.86667 21.8 9.33333 21.8 11.9333C21.8 14.6 20.8 17.0667 18.9333 18.8667C17.0667 20.6667 14.6667 21.8667 12 21.8667Z" fill="#8C8C8C"/>
</svg>
