<svg width="24" height="24" viewBox="0 0 24 24" fill="none" xmlns="http://www.w3.org/2000/svg">
<path d="M19.5333 4.46667C17.5333 2.46667 14.8667 1.33333 12 1.33333C9.13334 1.33333 6.46668 2.46667 4.46668 4.46667C2.46668 6.46667 1.33334 9.13333 1.33334 12C1.33334 14.8667 2.46668 17.5333 4.46668 19.5333C6.46668 21.5333 9.13334 22.6667 12 22.6667C14.8667 22.6667 17.5333 21.5333 19.5333 19.5333C21.5333 17.5333 22.6667 14.8667 22.6667 12C22.6667 9.13333 21.5333 6.46667 19.5333 4.46667ZM12 21.8667C9.33334 21.8667 6.86668 20.8667 5.06668 19C3.20001 17.1333 2.13334 14.6667 2.13334 12C2.13334 9.33333 3.13334 6.86667 5.00001 5.06667C6.86668 3.2 9.33334 2.13333 12 2.13333C14.6667 2.13333 17.1333 3.13333 18.9333 5C20.8 6.86667 21.8 9.33333 21.8 11.9333C21.8 14.6 20.8 17.0667 18.9333 18.8667C17.0667 20.6667 14.6667 21.8667 12 21.8667Z" fill="#8C8C8C"/>
<path d="M8.33335 11.8667H9.86669C10.0667 11.8667 10.2 11.9333 10.3334 12C10.4667 12.1333 10.4667 12.2667 10.4667 12.4667V14.8C10.4667 15 10.4 15.1333 10.2667 15.3333C9.73335 15.8 9.00002 16 8.06669 16C7.06669 16 6.20002 15.6667 5.60002 14.9333C4.93335 14.2 4.66669 13.2667 4.66669 12.0667C4.66669 10.8667 5.00002 9.86667 5.66669 9.13333C6.33335 8.4 7.13335 8.06667 8.20002 8.06667C9.00002 8.06667 9.60002 8.33333 10.2 8.8C10.3334 8.93333 10.3334 9.13333 10.2 9.33333C10 9.53333 9.86669 9.6 9.60002 9.4C9.20002 9.13333 8.73335 8.93333 8.26669 8.93333C7.46669 8.93333 6.86669 9.2 6.40002 9.8C5.93335 10.3333 5.73335 11.1333 5.73335 12.0667C5.73335 13.0667 5.93335 13.8 6.40002 14.4C6.86669 14.9333 7.46669 15.2667 8.26669 15.2667C8.86669 15.2667 9.33335 15.1333 9.66669 14.8V12.8H8.46669C8.20002 12.8 8.06669 12.6667 8.06669 12.4C7.93335 12 8.06669 11.8667 8.33335 11.8667Z" fill="#8C8C8C"/>
<path d="M13 8.66666V15.3333C13 15.6667 12.8667 15.8 12.5334 15.8C12.2 15.8 12 15.6667 12 15.3333V8.66666C12 8.33333 12.1334 8.2 12.5334 8.2C12.8667 8.2 13 8.33333 13 8.66666Z" fill="#8C8C8C"/>
<path d="M15.5334 8.2H18.9334C19.2 8.2 19.3334 8.33333 19.3334 8.6C19.3334 8.86666 19.2 9 18.9334 9H15.8667V11.6H18.4C18.6667 11.6 18.8 11.7333 18.8 12C18.8 12.2667 18.6667 12.4 18.4 12.4H15.8667V15.3333C15.8667 15.6667 15.7334 15.8 15.4 15.8C15.0667 15.8 14.8667 15.6667 14.8667 15.3333V8.73333C14.8667 8.53333 14.9334 8.4 15.0667 8.26666C15.2 8.2 15.3334 8.2 15.5334 8.2Z" fill="#8C8C8C"/>
</svg>
