<svg width="24" height="24" viewBox="0 0 24 24" fill="none" xmlns="http://www.w3.org/2000/svg">
<path d="M19.5333 4.46667C17.5333 2.46667 14.8667 1.33333 12 1.33333C9.13334 1.33333 6.46668 2.46667 4.46668 4.46667C2.46668 6.46667 1.33334 9.13333 1.33334 12C1.33334 14.8667 2.46668 17.5333 4.46668 19.5333C6.46668 21.5333 9.13334 22.6667 12 22.6667C14.8667 22.6667 17.5333 21.5333 19.5333 19.5333C21.5333 17.5333 22.6667 14.8667 22.6667 12C22.6667 9.13333 21.5333 6.46667 19.5333 4.46667ZM10.4667 14.8C10.4667 15 10.4 15.1333 10.2667 15.3333C9.73334 15.8 9.00001 16 8.06668 16C7.06668 16 6.20001 15.6667 5.60001 14.9333C4.93334 14.2 4.66668 13.2667 4.66668 12.0667C4.66668 10.8667 5.00001 9.86667 5.66668 9.13333C6.33334 8.4 7.13334 8.06667 8.20001 8.06667C9.00001 8.06667 9.60001 8.33333 10.2 8.8C10.3333 8.93333 10.3333 9.13333 10.2 9.33333C10 9.53333 9.86668 9.6 9.60001 9.4C9.20001 9.13333 8.73334 8.93333 8.26668 8.93333C7.46668 8.93333 6.86668 9.2 6.40001 9.8C5.93334 10.3333 5.73334 11.1333 5.73334 12.0667C5.73334 13.0667 5.93334 13.8 6.40001 14.4C6.86668 14.9333 7.46668 15.2667 8.26668 15.2667C8.86668 15.2667 9.33334 15.1333 9.66668 14.8V12.8H8.46668C8.20001 12.8 8.06668 12.6667 8.06668 12.4C8.06668 12.1333 8.20001 12 8.46668 12H10C10.2 12 10.3333 12.0667 10.4667 12.1333C10.6 12.2667 10.6 12.4 10.6 12.6V14.8H10.4667ZM13 15.3333C13 15.6667 12.8667 15.8 12.5333 15.8C12.2 15.8 12 15.6667 12 15.3333V8.66667C12 8.33333 12.1333 8.2 12.5333 8.2C12.8667 8.2 13 8.33333 13 8.66667V15.3333ZM18.9333 9H15.8667V11.6H18.4C18.6667 11.6 18.8 11.7333 18.8 12C18.8 12.2667 18.6667 12.4 18.4 12.4H15.8667V15.3333C15.8667 15.6667 15.7333 15.8 15.4 15.8C15.0667 15.8 14.8667 15.6667 14.8667 15.3333V8.73333C14.8667 8.53333 14.9333 8.4 15.0667 8.26667C15.2 8.13333 15.3333 8.06667 15.5333 8.06667H18.9333C19.2 8.06667 19.3333 8.2 19.3333 8.46667C19.3333 8.73333 19.2 9 18.9333 9Z" fill="#11AAC1"/>
</svg>
