<svg width="24" height="24" viewBox="0 0 24 24" fill="none" xmlns="http://www.w3.org/2000/svg">
<path d="M5.02572 19.9957H3.42182C3.32067 20.0072 3.21823 19.9957 3.12216 19.962C3.02608 19.9284 2.93884 19.8735 2.86696 19.8014C2.79508 19.7293 2.74041 19.6419 2.70704 19.5457C2.67367 19.4496 2.66246 19.3471 2.67425 19.246C2.67425 16.1917 2.67425 13.1359 2.67425 10.0788C2.66177 9.9781 2.67218 9.87592 2.7047 9.77985C2.73722 9.68378 2.79102 9.59629 2.86208 9.52391C2.93313 9.45153 3.01962 9.39614 3.11508 9.36185C3.21053 9.32757 3.3125 9.31528 3.41337 9.32591H4.68044H7.2283C7.31788 9.31704 7.40833 9.32668 7.49402 9.35423C7.57972 9.38178 7.65884 9.42665 7.72647 9.48606C7.7941 9.54547 7.84879 9.61815 7.88715 9.69958C7.92552 9.78102 7.94673 9.86947 7.94947 9.95944C9.89442 7.26376 11.0739 5.65036 11.6588 4.8785C11.8544 4.61256 12.1085 4.39506 12.4013 4.24275C12.6942 4.09045 13.0182 4.0074 13.3482 4C13.4745 4.00039 13.6005 4.01348 13.7241 4.03907C14.1018 4.10369 14.4515 4.27978 14.7283 4.54471C15.005 4.80964 15.1963 5.1513 15.2773 5.52576C15.3211 5.70759 15.342 5.89416 15.3396 6.08116C15.3396 6.85513 15.3396 7.64176 15.3396 8.40412V9.32908H17.4134C17.896 9.32908 18.2993 9.32908 18.6805 9.32908C19.0483 9.33102 19.4118 9.4084 19.7485 9.55641C20.0852 9.70443 20.388 9.91994 20.6381 10.1896C20.8829 10.4535 21.0701 10.7654 21.1879 11.1055C21.3057 11.4456 21.3515 11.8065 21.3223 12.1652C21.2834 12.5123 21.2088 12.8545 21.0995 13.1862C21.0816 13.2496 21.0626 13.3129 21.0446 13.3763C20.5769 15.0425 20.1091 16.6717 19.5907 18.4762C19.463 18.913 19.1978 19.2968 18.8344 19.5706C18.471 19.8444 18.0289 19.9935 17.5739 19.9957H9.4161L7.96426 19.0074V19.2048C7.96426 19.7412 7.7119 19.9904 7.17023 19.9904H5.02572V19.9957ZM13.3472 5.31881C13.2209 5.32735 13.0981 5.36367 12.9875 5.42518C12.8769 5.48669 12.7812 5.57188 12.7073 5.67464C11.7063 6.99556 9.0117 10.7281 8.0614 12.0554V17.4816L9.82157 18.6769H17.5792C17.749 18.6767 17.9142 18.6215 18.05 18.5194C18.1857 18.4174 18.2847 18.274 18.332 18.1109C18.7628 16.6137 19.2707 14.8377 19.7828 13.0194L19.843 12.8082C19.9239 12.565 19.9819 12.3147 20.0162 12.0607C20.0307 11.882 20.0077 11.7023 19.9488 11.5331C19.8899 11.3638 19.7963 11.2087 19.6741 11.0776C19.5479 10.9396 19.3942 10.8295 19.2229 10.7544C19.0516 10.6793 18.8665 10.6408 18.6794 10.6415C18.3162 10.6415 17.9266 10.6415 17.4124 10.6415H16.3913H15.3354H14.0251V8.00182C14.0251 7.37462 14.0251 6.72631 14.0251 6.08749C14.0281 6.01273 14.0217 5.93788 14.0061 5.8647C13.9866 5.72714 13.922 5.59994 13.8225 5.50305C13.7229 5.40616 13.594 5.34507 13.4559 5.32937C13.4203 5.32112 13.3838 5.31687 13.3472 5.31669V5.31881ZM4.68044 10.6415H3.99094C3.99094 13.3165 3.99094 15.9942 3.99094 18.6748H6.64862C6.64862 16.979 6.64862 12.6235 6.64862 10.6415H4.68044Z" fill="#8C8C8C"/>
</svg>
