<svg width="24" height="24" viewBox="0 0 24 24" fill="none" xmlns="http://www.w3.org/2000/svg">
<path d="M9.14384 21.5C9.1006 21.4999 9.0574 21.4973 9.01447 21.4922C8.7001 21.4572 8.4125 21.2987 8.21487 21.0518C8.01724 20.8048 7.92575 20.4894 7.96052 20.175L8.17019 18.2712H7.44525C6.53181 18.2706 5.65592 17.9077 5.00982 17.262C4.36371 16.6163 4.00017 15.7406 3.99899 14.8272L3.99899 8.94514C4.00017 8.0316 4.36368 7.15583 5.00975 6.50997C5.65582 5.8641 6.53171 5.50089 7.44525 5.5H18.0517C18.9652 5.50089 19.8411 5.8641 20.4872 6.50997C21.1333 7.15583 21.4968 8.0316 21.4979 8.94514V14.8272C21.4968 15.7406 21.1332 16.6163 20.4871 17.262C19.841 17.9077 18.9651 18.2706 18.0517 18.2712H13.189L9.94239 21.1944C9.72315 21.3915 9.43865 21.5004 9.14384 21.5ZM7.44525 6.80935C6.87898 6.80994 6.33608 7.03515 5.93567 7.43556C5.53526 7.83597 5.31005 8.37888 5.30946 8.94514V14.8272C5.31005 15.3935 5.53526 15.9364 5.93567 16.3368C6.33608 16.7372 6.87898 16.9624 7.44525 16.963H9.63457L9.62453 17.0455L9.28994 20.0367L12.6871 16.963H18.0517C18.618 16.9624 19.1609 16.7372 19.5613 16.3368C19.9617 15.9364 20.1869 15.3935 20.1875 14.8272V8.94514C20.1869 8.37888 19.9617 7.83597 19.5613 7.43556C19.1609 7.03515 18.618 6.80994 18.0517 6.80935H7.44525Z" fill="#8C8C8C" stroke="#8C8C8C" stroke-width="0.1" stroke-miterlimit="10"/>
</svg>
