<svg width="24" height="24" viewBox="0 0 24 24" fill="none" xmlns="http://www.w3.org/2000/svg">
<path d="M6.8 6.60001C5.93333 6.60001 5.26666 7.20001 5.26666 8.06667C5.26666 8.86667 6 9.60001 6.8 9.60001C7.6 9.60001 8.26666 8.86667 8.26666 8.06667C8.26666 7.26667 7.66666 6.60001 6.8 6.60001Z" fill="#11AAC1"/>
<path d="M21.2667 2.93333H3.00001C2.06668 2.93333 1.33334 3.66667 1.33334 4.6V19.6667C1.33334 20.4667 1.93334 21.0667 2.73334 21.0667H21.2667C22.0667 21.0667 22.6667 20.4667 22.6667 19.7333V4.33333C22.6667 3.53333 22.0667 2.93333 21.2667 2.93333ZM6.73334 5.73333C8.00001 5.73333 9.00001 6.66667 9.00001 8C9.00001 9.33333 8.00001 10.3333 6.73334 10.3333C5.53334 10.3333 4.46668 9.26667 4.40001 8C4.40001 6.73333 5.46668 5.73333 6.73334 5.73333ZM20.4667 15.2C20.4 15.2667 20.3333 15.3333 20.2 15.3333C20.1333 15.3333 20 15.2667 19.9333 15.2L15.5333 11.2L12 15.0667L13.8667 17.0667C13.9333 17.1333 14 17.2 14 17.3333C14 17.4 13.9333 17.5333 13.8667 17.6C13.7333 17.7333 13.4 17.7333 13.2667 17.6L9.26668 13.6L4.00001 18.2C3.93334 18.2667 3.80001 18.2667 3.73334 18.2667C3.60001 18.2667 3.53334 18.2 3.46668 18.0667C3.33334 17.8667 3.40001 17.6 3.53334 17.4667L9.06668 12.6667C9.20001 12.5333 9.53334 12.5333 9.66668 12.6667L11.4667 14.5333L15.2667 10.3333C15.3333 10.2667 15.4 10.2 15.5333 10.2C15.6 10.2 15.7333 10.2667 15.8 10.3333L20.4667 14.6C20.6 14.7333 20.6 15.0667 20.4667 15.2Z" fill="#11AAC1"/>
</svg>
