<svg width="24" height="24" viewBox="0 0 24 24" fill="none" xmlns="http://www.w3.org/2000/svg">
<path d="M6.73336 10.3333C8.00002 10.3333 9.00002 9.33334 9.00002 8C9.00002 6.66667 8.00002 5.73334 6.73336 5.73334C5.46669 5.73334 4.40002 6.73334 4.40002 8C4.46669 9.26667 5.53336 10.3333 6.73336 10.3333ZM6.80002 6.6C7.66669 6.6 8.26669 7.26667 8.26669 8.06667C8.26669 8.86667 7.60002 9.6 6.80002 9.6C6.00002 9.6 5.26669 8.86667 5.26669 8.06667C5.26669 7.2 5.93336 6.6 6.80002 6.6Z" fill="#8C8C8C"/>
<path d="M15.8 10.3333C15.7334 10.2667 15.6 10.2 15.5334 10.2C15.4 10.2 15.3334 10.2667 15.2667 10.3333L11.4667 14.5333L9.66669 12.6667C9.53336 12.5333 9.20002 12.5333 9.06669 12.6667L3.53336 17.4667C3.40002 17.6 3.33336 17.8667 3.46669 18.0667C3.53336 18.2 3.60002 18.2667 3.73336 18.2667C3.80002 18.2667 3.93336 18.2667 4.00002 18.2L9.26669 13.6L13.2667 17.6C13.4 17.7333 13.7334 17.7333 13.8667 17.6C13.9334 17.5333 14 17.4 14 17.3333C14 17.2 13.9334 17.1333 13.8667 17.0667L12 15.0667L15.5334 11.2L19.9334 15.2C20 15.2667 20.1334 15.3333 20.2 15.3333C20.3334 15.3333 20.4 15.2667 20.4667 15.2C20.6 15.0667 20.6 14.7333 20.4667 14.6L15.8 10.3333Z" fill="#8C8C8C"/>
<path d="M21.2667 2.93333H2.73334C1.93334 2.93333 1.33334 3.53333 1.33334 4.33333V19.6667C1.33334 20.4 2.00001 21.0667 2.73334 21.0667H21.2667C22.0667 21.0667 22.6667 20.4667 22.6667 19.7333V4.33333C22.6667 3.6 22 2.93333 21.2667 2.93333ZM21.8667 19.7333C21.8667 20 21.6 20.2667 21.2667 20.2667H2.73334C2.40001 20.2667 2.13334 20 2.13334 19.6667V4.33333C2.13334 3.93333 2.46668 3.73333 2.73334 3.73333H21.2667C21.6 3.73333 21.8667 4 21.8667 4.33333V19.7333Z" fill="#8C8C8C"/>
</svg>
